{"title":"Kill.Kane.2016.720p.WEB-DL.XviD.AC3-FGT","uid":13246452,"size":2707742643,"categoryP":"video","categoryS":"hd___movies","magnet":"?xt=urn:btih:0f83f9d3386ac8cf58bbb750428e8aa8161453b8&amp;dn=Kill.Kane.2016.720p.WEB-DL.XviD.AC3-FGT&amp;tr=udp%3A%2F%2Ftracker.leechers-paradise.org%3A6969&amp;tr=udp%3A%2F%2Fzer0day.ch%3A1337&amp;tr=udp%3A%2F%2Fopen.demonii.com%3A1337&amp;tr=udp%3A%2F%2Ftracker.coppersurfer.tk%3A6969&amp;tr=udp%3A%2F%2Fexodus.desync.com%3A6969","seeders":0,"leechers":1,"uploader":"TheRival","files":3,"time":1453114445,"description":"Screens: \nhttp://extraimago.com/image/tp8 \nhttp://extraimago.com/image/tpa \nhttp://extraimago.com/image/tpw \nhttp://extraimago.com/image/tp2 \nhttp://extraimago.com/image/tpN \nhttp://extraimago.com/image/tpT\r\n\r\nVideo\r\nID                                       : 0\r\nFormat                                   : MPEG-4 Visual\r\nFormat profile                           :   \r\nFormat settings, BVOP                    : No\r\nFormat settings, QPel                    : No\r\nFormat settings, GMC                     : No warppoints\r\nFormat settings, Matrix                  : Default (H.263)\r\nCodec ID                                 : XVID\r\nCodec ID/Hint                            : XviD\r\nDuration                                 : 1h 14mn\r\nBit rate                                 : 4 461 Kbps\r\nWidth                                    : 1 280 pixels\r\nHeight                                   : 532 pixels\r\nDisplay aspect ratio                     : 2.40:1\r\nFrame rate                               : 25.000 fps\r\nColor space                              : YUV\r\nChroma subsampling                       : 4:2:0\r\nBit depth                                : 8 bits\r\nScan type                                : Progressive\r\nCompression mode                         : Lossy\r\nBits/(Pixel*Frame)                       : 0.262\r\nStream size                              : 2.32 GiB (92%)\r\nWriting library                          : Lavc56.13.100\r\n\r\nAudio\r\nID                                       : 1\r\nFormat                                   : AC-3\r\nFormat/Info                              : Audio Coding 3\r\nMode extension                           : CM (complete main)\r\nFormat settings, Endianness              : Big\r\nCodec ID                                 : 2000\r\nDuration                                 : 1h 14mn\r\nBit rate mode                            : Constant\r\nBit rate                                 : 384 Kbps\r\nChannel(s)                               : 6 channels\r\nChannel positions                        : Front: L C R, Side: L R, LFE\r\nSampling rate                            : 48.0 KHz\r\nFrame rate                               : 31.250 fps (1536 spf)\r\nCompression mode                         : Lossy\r\nStream size                              : 204 MiB (8%)\r\nAlignment                                : Aligned on interleaves\r\nInterleave, duration                     : 40 ms (1.00 video frame)\r\nInterleave, preload duration             : 512 ms","torrent":{"xt":"urn:btih:0f83f9d3386ac8cf58bbb750428e8aa8161453b8","amp;dn":"Kill.Kane.2016.720p.WEB-DL.XviD.AC3-FGT","amp;tr":["udp%3A%2F%2Ftracker.leechers-paradise.org%3A6969","udp%3A%2F%2Fzer0day.ch%3A1337","udp%3A%2F%2Fopen.demonii.com%3A1337","udp%3A%2F%2Ftracker.coppersurfer.tk%3A6969","udp%3A%2F%2Fexodus.desync.com%3A6969"],"infoHash":"0f83f9d3386ac8cf58bbb750428e8aa8161453b8","infoHashBuffer":{"type":"Buffer","data":[15,131,249,211,56,106,200,207,88,187,183,80,66,142,138,168,22,20,83,184]},"announce":[],"urlList":[]}}